<?xml version="1.0" encoding="UTF-8" standalone="no"?>
<svg
   version="1.0"
   width="510"
   height="122"
   viewBox="0 0 276.25 67.817648"
   preserveAspectRatio="xMidYMid meet"
   id="svg107"
   sodipodi:docname="limiteSuperior.inline.svg"
   inkscape:version="1.1.2 (b8e25be833, 2022-02-05)"
   xmlns:inkscape="http://www.inkscape.org/namespaces/inkscape"
   xmlns:sodipodi="http://sodipodi.sourceforge.net/DTD/sodipodi-0.dtd"
   xmlns="http://www.w3.org/2000/svg"
   xmlns:svg="http://www.w3.org/2000/svg">
  <defs
     id="defs111" />
  <sodipodi:namedview
     id="namedview109"
     pagecolor="#ffffff"
     bordercolor="#666666"
     borderopacity="1.0"
     inkscape:pageshadow="2"
     inkscape:pageopacity="0.0"
     inkscape:pagecheckerboard="0"
     inkscape:document-units="px"
     showgrid="false"
     inkscape:zoom="1.088648"
     inkscape:cx="473.98241"
     inkscape:cy="235.61335"
     inkscape:window-width="1920"
     inkscape:window-height="1051"
     inkscape:window-x="-9"
     inkscape:window-y="-9"
     inkscape:window-maximized="1"
     inkscape:current-layer="svg107"
     units="px" />
  <metadata
     id="metadata61">
Created by potrace 1.16, written by Peter Selinger 2001-2019
</metadata>
  <g
     transform="matrix(0.02571366,0,0,-0.02571366,-10.359644,77.116974)"
     fill="#000000"
     stroke="none"
     id="g105"
     style="fill:#ff9000;fill-opacity:1">
    <path
       d="m 3535,2925 c -69,-43 -119,-80 -117,-87 7,-28 22,-28 70,2 29,18 62,30 74,28 l 23,-3 3,-272 2,-272 -24,-16 c -13,-9 -47,-18 -75,-22 -41,-5 -51,-9 -51,-24 0,-18 12,-19 205,-19 194,0 205,1 205,19 0,15 -10,20 -59,25 -100,11 -96,-6 -96,382 0,328 0,334 -20,333 -11,0 -74,-34 -140,-74 z"
       id="path63"
       style="fill:#ff9000;fill-opacity:1" />
    <path
       d="m 9300,2925 c -69,-41 -124,-77 -123,-80 15,-37 19,-37 76,-5 31,17 67,30 79,28 l 23,-3 v -273 c 0,-314 6,-296 -96,-308 -49,-5 -59,-10 -59,-25 0,-18 11,-19 205,-19 198,0 205,1 205,20 0,15 -7,20 -27,20 -47,0 -102,20 -113,40 -6,11 -10,145 -10,349 0,309 -1,331 -17,330 -10,0 -74,-34 -143,-74 z"
       id="path65"
       style="fill:#ff9000;fill-opacity:1" />
    <path
       d="m 7924,2768 c -146,-155 -264,-411 -309,-671 -38,-223 -38,-571 0,-788 46,-265 173,-538 314,-674 47,-45 52,-48 67,-33 15,14 12,20 -29,71 -123,151 -215,386 -252,647 -34,236 -29,596 10,827 38,223 138,466 236,576 52,58 52,59 32,78 -19,20 -20,19 -69,-33 z"
       id="path67"
       style="fill:#ff9000;fill-opacity:1" />
    <path
       d="m 10769,2799 c -9,-18 -6,-26 24,-58 126,-131 229,-405 268,-716 19,-148 16,-532 -5,-680 -41,-289 -126,-515 -252,-670 -44,-53 -46,-58 -29,-73 16,-16 21,-12 83,54 141,150 249,388 298,659 22,121 31,515 15,656 -25,218 -75,390 -162,559 -51,100 -157,243 -202,273 -25,16 -27,16 -38,-4 z"
       id="path69"
       style="fill:#ff9000;fill-opacity:1" />
    <path
       d="m 510,2115 c 0,-8 9,-15 19,-15 21,0 31,-19 31,-57 0,-45 -121,-577 -137,-602 -8,-13 -24,-26 -34,-28 -10,-3 -19,-12 -19,-19 0,-12 41,-14 234,-14 h 234 l 26,105 c 14,57 26,107 26,110 0,3 -11,5 -25,5 -20,0 -29,-10 -49,-53 -14,-29 -39,-66 -56,-82 -30,-29 -36,-30 -132,-33 -93,-4 -100,-3 -94,15 3,10 33,146 67,303 34,157 68,298 76,314 8,15 23,31 34,33 10,3 19,12 19,19 0,11 -23,14 -110,14 -91,0 -110,-3 -110,-15 z"
       id="path71"
       style="fill:#ff9000;fill-opacity:1" />
    <path
       d="m 1137,2123 c -13,-12 -7,-23 13,-23 33,0 42,-33 30,-103 -29,-155 -121,-542 -135,-563 -8,-13 -22,-24 -30,-24 -8,0 -15,-7 -15,-15 0,-12 19,-15 110,-15 82,0 110,3 110,13 0,7 -10,17 -22,22 -36,16 -33,62 21,310 76,345 78,353 112,371 16,8 29,19 29,24 0,11 -213,14 -223,3 z"
       id="path73"
       style="fill:#ff9000;fill-opacity:1" />
    <path
       d="m 4570,1900 v -160 h -150 -150 v -35 -35 h 150 150 v -160 -160 h 40 39 l 3,158 3,157 148,3 147,3 v 34 35 h -150 -150 v 160 160 h -40 -40 z"
       id="path75"
       style="fill:#ff9000;fill-opacity:1" />
    <path
       d="m 5416,1898 c -2,-7 -11,-41 -19,-75 l -15,-63 h 28 c 19,0 31,6 34,18 4,10 21,33 39,51 34,32 35,32 122,29 l 88,-3 -196,-224 c -118,-135 -193,-229 -190,-238 4,-11 42,-13 206,-11 l 201,3 12,55 c 19,79 18,100 -5,100 -12,0 -29,-17 -45,-45 -15,-24 -36,-50 -48,-56 -24,-13 -198,-26 -198,-15 0,4 88,109 196,232 125,143 194,230 190,239 -7,20 -394,22 -400,3 z"
       id="path77"
       style="fill:#ff9000;fill-opacity:1" />
    <path
       d="m 2230,1815 v -35 h 340 340 v 35 35 h -340 -340 z"
       id="path79"
       style="fill:#ff9000;fill-opacity:1" />
    <path
       d="m 3310,1705 v -35 h 315 315 v 35 35 h -315 -315 z"
       id="path81"
       style="fill:#ff9000;fill-opacity:1" />
    <path
       d="m 8050,1705 v -35 h 1335 1335 v 35 35 H 9385 8050 Z"
       id="path83"
       style="fill:#ff9000;fill-opacity:1" />
    <path
       d="m 6553,1357 c -79,-200 -143,-366 -143,-370 0,-4 13,-7 29,-7 26,0 32,6 49,53 11,28 74,191 141,361 67,169 121,312 121,317 0,5 -12,9 -27,9 -27,0 -31,-8 -170,-363 z"
       id="path85"
       style="fill:#ff9000;fill-opacity:1" />
    <path
       d="m 6921,1654 c -71,-19 -71,-19 -71,-65 0,-33 3,-39 20,-39 12,0 38,18 59,40 31,33 45,40 75,40 85,0 115,-96 56,-178 -16,-23 -58,-72 -93,-109 -79,-84 -127,-150 -127,-175 0,-17 11,-18 170,-18 h 170 v 60 c 0,53 -2,60 -20,60 -11,0 -20,-6 -20,-14 0,-29 -27,-37 -121,-34 l -94,3 96,100 c 145,152 149,158 149,219 0,39 -6,61 -20,79 -37,46 -127,59 -229,31 z"
       id="path87"
       style="fill:#ff9000;fill-opacity:1" />
    <path
       d="m 2230,1590 v -40 h 340 340 v 40 40 h -340 -340 z"
       id="path89"
       style="fill:#ff9000;fill-opacity:1" />
    <path
       d="m 1397,1530 c -50,-31 -55,-41 -34,-59 11,-8 19,-5 37,14 38,40 75,28 65,-22 -3,-10 -18,-79 -35,-154 -16,-75 -30,-142 -30,-148 0,-8 14,-11 37,-9 l 36,3 23,103 c 29,126 45,161 95,207 44,39 75,45 84,15 4,-12 15,-20 29,-20 18,0 25,7 30,31 12,61 9,69 -28,69 -50,0 -80,-14 -131,-61 l -45,-42 v 35 c 0,71 -56,87 -133,38 z"
       id="path91"
       style="fill:#ff9000;fill-opacity:1" />
    <path
       d="m 6002,1534 c -79,-39 -130,-124 -139,-233 -7,-82 13,-133 58,-151 48,-20 95,-4 155,52 l 54,51 v -40 c 0,-46 23,-73 61,-73 27,0 119,54 119,69 0,21 -21,21 -46,2 -58,-45 -80,-19 -69,80 6,52 15,71 71,149 35,49 64,94 64,100 0,5 -17,10 -38,10 -36,0 -39,-3 -67,-57 -28,-58 -28,-58 -35,-28 -21,96 -87,120 -188,69 z m 124,-35 c 14,-16 18,-35 17,-80 -3,-134 -126,-275 -187,-213 -21,21 -21,118 0,181 37,111 121,166 170,112 z"
       id="path93"
       style="fill:#ff9000;fill-opacity:1" />
    <path
       d="m 8717,1443 c -3,-5 -64,-213 -137,-463 -72,-250 -133,-456 -135,-458 -3,-3 -20,34 -125,265 -36,79 -70,143 -76,143 -9,0 -164,-67 -171,-74 -1,-1 0,-11 3,-23 l 6,-21 46,19 c 25,11 49,16 53,12 4,-4 57,-114 116,-243 105,-226 110,-235 138,-235 h 28 l 133,455 c 74,250 141,479 149,508 l 16,52 h 979 980 v 35 35 h -999 c -550,0 -1002,-3 -1004,-7 z"
       id="path95"
       style="fill:#ff9000;fill-opacity:1" />
    <path
       d="m 3545,1373 c -11,-2 -48,-14 -82,-25 l -63,-22 v -53 -53 h 33 c 28,0 36,5 50,35 25,52 71,77 130,72 60,-5 94,-36 108,-95 19,-84 -14,-156 -133,-292 -41,-47 -91,-107 -112,-134 -37,-49 -96,-156 -96,-176 0,-6 79,-10 229,-10 h 229 l 4,80 c 3,77 2,80 -19,80 -15,0 -28,-10 -37,-29 -9,-16 -23,-31 -31,-35 -25,-9 -255,-7 -255,3 0,14 64,93 180,223 61,68 120,142 131,165 22,46 27,130 11,173 -14,34 -60,75 -101,89 -33,11 -135,13 -176,4 z"
       id="path97"
       style="fill:#ff9000;fill-opacity:1" />
    <path
       d="m 9032,1140 c -138,-82 -141,-85 -121,-106 14,-14 21,-12 66,16 30,19 61,30 74,28 l 24,-3 3,-263 c 1,-166 -1,-270 -8,-282 -11,-20 -66,-40 -112,-40 -21,0 -28,-5 -28,-20 0,-19 7,-20 205,-20 198,0 205,1 205,20 0,16 -7,20 -32,20 -60,0 -108,19 -119,47 -6,15 -8,155 -7,349 3,319 3,324 -17,323 -11,-1 -71,-32 -133,-69 z"
       id="path99"
       style="fill:#ff9000;fill-opacity:1" />
    <path
       d="m 9633,1195 c -29,-8 -68,-21 -88,-29 -34,-14 -35,-17 -35,-65 v -51 h 35 c 28,0 37,6 49,28 24,47 62,74 109,79 85,10 137,-43 137,-139 0,-66 -38,-133 -143,-255 -103,-121 -142,-174 -176,-240 -38,-77 -48,-73 203,-73 h 223 l 7,38 c 3,20 6,56 6,80 0,38 -2,42 -24,42 -17,0 -27,-9 -36,-30 -16,-38 -30,-41 -174,-38 l -118,3 45,60 c 25,33 90,110 146,170 125,136 155,191 149,275 -5,68 -26,104 -78,134 -43,26 -166,31 -237,11 z"
       id="path101"
       style="fill:#ff9000;fill-opacity:1" />
    <path
       d="m 10185,979 c -16,-5 -50,-26 -75,-48 -42,-37 -44,-40 -28,-57 16,-16 18,-15 48,15 36,35 75,41 85,12 6,-21 -9,-104 -60,-313 l -32,-138 h 48 c 37,0 49,4 53,18 2,9 17,73 31,142 29,133 44,172 95,235 56,70 111,93 144,59 23,-23 20,-74 -14,-208 -38,-150 -39,-198 -5,-231 40,-41 95,-31 171,32 43,34 44,37 27,55 -16,18 -17,18 -49,-13 -40,-39 -77,-37 -82,3 -2,15 10,85 27,155 44,186 44,187 27,226 -18,43 -47,60 -103,59 -53,0 -99,-28 -155,-93 l -43,-50 3,48 c 6,77 -41,114 -113,92 z"
       id="path103"
       style="fill:#ff9000;fill-opacity:1" />
  </g>
</svg>
