<?xml version="1.0" encoding="UTF-8" standalone="no"?>
<svg
   version="1.0"
   width="210"
   height="140"
   viewBox="0 0 157.5 105"
   preserveAspectRatio="xMidYMid meet"
   id="svg1300"
   sodipodi:docname="promedior.inline.svg"
   inkscape:version="1.1.2 (b8e25be833, 2022-02-05)"
   xmlns:inkscape="http://www.inkscape.org/namespaces/inkscape"
   xmlns:sodipodi="http://sodipodi.sourceforge.net/DTD/sodipodi-0.dtd"
   xmlns="http://www.w3.org/2000/svg"
   xmlns:svg="http://www.w3.org/2000/svg">
  <defs
     id="defs1304" />
  <sodipodi:namedview
     id="namedview1302"
     pagecolor="#ffffff"
     bordercolor="#666666"
     borderopacity="1.0"
     inkscape:pageshadow="2"
     inkscape:pageopacity="0.0"
     inkscape:pagecheckerboard="0"
     inkscape:document-units="px"
     showgrid="false"
     inkscape:zoom="1.5444529"
     inkscape:cx="220.14268"
     inkscape:cy="247.01304"
     inkscape:window-width="1920"
     inkscape:window-height="1051"
     inkscape:window-x="-9"
     inkscape:window-y="-9"
     inkscape:window-maximized="1"
     inkscape:current-layer="svg1300"
     units="px" />
  <metadata
     id="metadata1266">
Created by potrace 1.16, written by Peter Selinger 2001-2019
</metadata>
  <g
     transform="matrix(0.03539587,0,0,-0.03539587,-22.437749,117.59845)"
     fill="#000000"
     stroke="none"
     class="ecuacion-svg"
     id="g1298"
     style="fill:#ff9000;fill-opacity:1">
    <path
       d="m 3507,3255 c -20,-14 -37,-29 -37,-34 0,-19 14,-19 38,-1 28,23 48,26 55,8 3,-11 -26,-161 -49,-254 -6,-22 -3,-24 25,-24 33,0 33,1 62,134 20,91 88,170 133,153 21,-8 21,-67 1,-133 -8,-27 -15,-70 -15,-97 0,-41 3,-49 24,-58 31,-14 67,-5 102,24 36,31 24,56 -13,27 -14,-11 -32,-20 -41,-20 -17,0 -14,37 13,159 13,59 14,80 4,103 -22,53 -85,50 -149,-8 l -40,-36 v 25 c 0,31 -24,57 -53,57 -12,0 -39,-11 -60,-25 z"
       id="path1268"
       style="fill:#ff9000;fill-opacity:1" />
    <path
       d="m 2575,2829 c -119,-73 -107,-63 -99,-82 5,-14 13,-12 61,13 83,45 83,46 83,-199 0,-241 -1,-245 -80,-256 -33,-5 -50,-12 -50,-21 0,-11 30,-14 165,-14 134,0 165,3 165,14 0,9 -17,16 -45,20 -77,12 -75,3 -75,312 0,213 -3,274 -12,274 -7,0 -58,-28 -113,-61 z"
       id="path1270"
       style="fill:#ff9000;fill-opacity:1" />
    <path
       d="m 3100,2699 c 0,-12 130,-195 306,-431 l 306,-409 -24,-32 C 3431,1486 3080,997 3080,981 v -21 h 554 553 l 7,123 c 4,67 9,141 12,165 l 6,42 h -34 c -33,0 -34,-1 -45,-55 -17,-77 -40,-121 -71,-134 -19,-8 -151,-10 -424,-9 l -398,3 285,388 c 243,331 285,392 285,422 0,29 -39,87 -263,392 l -264,358 364,3 c 278,2 371,-1 391,-10 32,-15 69,-85 80,-149 6,-38 11,-44 35,-47 l 27,-3 v 135 136 h -540 -540 z"
       id="path1272"
       style="fill:#ff9000;fill-opacity:1" />
    <path
       d="m 850,2135 v -25 h 165 165 v 25 25 H 1015 850 Z"
       id="path1274"
       style="fill:#ff9000;fill-opacity:1" />
    <path
       d="m 787,1989 c -44,-29 -56,-47 -41,-62 4,-4 20,5 36,18 36,30 64,32 71,5 4,-17 -25,-164 -68,-347 -5,-21 -2,-23 33,-23 h 39 l 27,121 c 30,137 41,162 95,219 44,47 77,52 91,15 15,-39 47,-33 59,13 18,63 15,72 -24,72 -52,0 -94,-21 -142,-71 l -43,-44 v 41 c 0,77 -55,95 -133,43 z"
       id="path1276"
       style="fill:#ff9000;fill-opacity:1" />
    <path
       d="m 4515,2001 c -16,-10 -38,-27 -48,-38 -15,-17 -15,-22 -4,-31 11,-9 19,-6 37,13 29,31 58,32 65,3 3,-13 -12,-99 -33,-193 l -39,-170 35,-3 c 19,-2 36,-2 38,1 2,2 15,54 29,116 29,129 50,175 100,226 42,41 71,45 87,10 7,-16 19,-25 33,-25 18,0 24,7 29,38 11,68 9,72 -29,72 -53,0 -95,-22 -142,-72 l -41,-46 1,45 c 2,34 -3,48 -17,59 -27,19 -65,18 -101,-5 z"
       id="path1278"
       style="fill:#ff9000;fill-opacity:1" />
    <path
       d="m 1500,1940 v -30 h 275 275 v 30 30 h -275 -275 z"
       id="path1280"
       style="fill:#ff9000;fill-opacity:1" />
    <path
       d="m 2370,1840 v -30 h 270 270 v 30 30 h -270 -270 z"
       id="path1282"
       style="fill:#ff9000;fill-opacity:1" />
    <path
       d="m 1500,1740 v -30 h 275 275 v 30 30 h -275 -275 z"
       id="path1284"
       style="fill:#ff9000;fill-opacity:1" />
    <path
       d="m 4830,1710 c 0,-5 6,-10 14,-10 25,0 26,-29 6,-120 -11,-50 -20,-110 -20,-135 0,-38 4,-47 24,-56 31,-15 67,-5 103,25 20,18 25,28 17,36 -7,7 -16,5 -29,-10 -10,-11 -26,-20 -37,-20 -25,0 -24,36 7,172 14,61 25,115 25,119 0,5 -25,9 -55,9 -30,0 -55,-4 -55,-10 z"
       id="path1286"
       style="fill:#ff9000;fill-opacity:1" />
    <path
       d="m 2437,1379 c -44,-29 -56,-47 -41,-62 4,-3 21,5 39,18 37,29 60,32 69,9 5,-13 -48,-280 -70,-356 -4,-15 1,-18 34,-18 h 39 l 22,108 c 13,59 34,130 47,159 27,55 93,123 122,123 53,-1 56,-37 17,-212 -27,-121 -28,-127 -11,-153 9,-14 24,-29 32,-32 27,-10 79,7 117,38 30,25 35,34 26,45 -9,12 -16,10 -41,-12 -68,-56 -82,-9 -44,144 33,130 34,175 1,207 -46,47 -124,25 -192,-53 l -33,-37 v 42 c 0,78 -53,95 -133,42 z"
       id="path1288"
       style="fill:#ff9000;fill-opacity:1" />
    <path
       d="m 3998,788 c -43,-23 -78,-48 -78,-55 0,-17 22,-16 46,2 10,8 29,15 42,15 22,0 22,-1 22,-137 0,-76 -4,-144 -9,-151 -4,-8 -27,-16 -50,-19 -25,-4 -41,-11 -41,-19 0,-11 27,-14 130,-14 109,0 130,2 130,15 0,10 -10,15 -34,15 -63,0 -66,10 -66,211 0,98 -3,179 -7,179 -5,0 -43,-19 -85,-42 z"
       id="path1290"
       style="fill:#ff9000;fill-opacity:1" />
    <path
       d="m 3170,730 c 0,-5 6,-10 14,-10 25,0 26,-29 6,-120 -11,-50 -20,-110 -20,-135 0,-38 4,-47 24,-56 31,-15 67,-5 103,25 20,18 25,28 17,36 -7,7 -16,5 -29,-10 -10,-11 -26,-20 -37,-20 -25,0 -24,36 7,172 14,61 25,115 25,119 0,5 -25,9 -55,9 -30,0 -55,-4 -55,-10 z"
       id="path1292"
       style="fill:#ff9000;fill-opacity:1" />
    <path
       d="m 3420,675 v -25 h 190 190 v 25 25 h -190 -190 z"
       id="path1294"
       style="fill:#ff9000;fill-opacity:1" />
    <path
       d="m 3420,535 v -25 h 190 190 v 25 25 h -190 -190 z"
       id="path1296"
       style="fill:#ff9000;fill-opacity:1" />
  </g>
</svg>
